<svg version="1.1" id="Layer_1" xmlns="http://www.w3.org/2000/svg" xmlns:xlink="http://www.w3.org/1999/xlink" x="0px" y="0px"
	 width="100%" viewBox="0 0 382 391" enable-background="new 0 0 382 391" xml:space="preserve">
<path fill="#F7F9F9" opacity="1.000000" stroke="none" 
	d="
M1.000000,144.000000 
	C1.000000,96.000008 1.000000,48.500015 1.000000,1.000019 
	C128.333298,1.000013 255.666611,1.000013 382.999939,1.000006 
	C382.999939,131.333282 382.999939,261.666565 382.999969,391.999878 
	C255.666748,391.999939 128.333481,391.999939 1.000116,391.999969 
	C1.000000,309.500000 1.000000,227.000000 1.000000,144.000000 
M172.637650,377.007721 
	C208.696320,380.113007 242.948349,373.979034 275.101654,357.028778 
	C308.203644,339.578461 333.630127,314.249725 351.078857,281.295563 
	C369.798340,245.941406 376.179993,208.244263 370.121521,168.551849 
	C364.061218,128.847107 346.551727,94.788010 318.282623,66.604042 
	C290.845703,39.249771 257.439270,22.858536 219.169281,16.497890 
	C196.884811,12.794113 174.606094,13.238112 152.638763,18.131887 
	C105.602287,28.610441 67.857658,53.417244 40.521793,93.317032 
	C19.218796,124.411171 8.523884,159.029434 8.658697,196.701202 
	C8.787006,232.555298 18.837410,265.620392 38.485062,295.708160 
	C52.914925,317.805573 71.299538,335.839661 93.614059,349.923706 
	C117.551987,365.032379 143.623032,373.907837 172.637650,377.007721 
z"/>
<path fill="#41703E" opacity="1.000000" stroke="none" 
	d="
M172.179169,376.986633 
	C143.623032,373.907837 117.551987,365.032379 93.614059,349.923706 
	C71.299538,335.839661 52.914925,317.805573 38.485062,295.708160 
	C18.837410,265.620392 8.787006,232.555298 8.658697,196.701202 
	C8.523884,159.029434 19.218796,124.411171 40.521793,93.317032 
	C67.857658,53.417244 105.602287,28.610441 152.638763,18.131887 
	C174.606094,13.238112 196.884811,12.794113 219.169281,16.497890 
	C257.439270,22.858536 290.845703,39.249771 318.282623,66.604042 
	C346.551727,94.788010 364.061218,128.847107 370.121521,168.551849 
	C376.179993,208.244263 369.798340,245.941406 351.078857,281.295563 
	C333.630127,314.249725 308.203644,339.578461 275.101654,357.028778 
	C242.948349,373.979034 208.696320,380.113007 172.179169,376.986633 
M234.200546,38.198769 
	C212.502899,32.498192 190.595123,31.001925 168.273941,33.909824 
	C141.994217,37.333420 118.250420,47.040325 96.649391,62.011814 
	C78.290825,74.735985 63.454803,90.885559 51.417015,109.797913 
	C37.367111,131.871475 29.447128,156.061142 27.340176,181.795868 
	C26.186359,195.888763 27.130770,210.457291 29.342894,224.461624 
	C34.712074,258.452484 50.668362,287.599060 74.763359,311.864502 
	C84.017029,321.183624 94.973274,329.122864 106.096443,336.211578 
	C130.890549,352.012634 158.678925,358.899872 187.817932,359.796326 
	C197.984848,360.109100 208.296692,358.546753 218.417267,357.014557 
	C252.925369,351.790070 282.370728,335.997284 306.645447,311.394806 
	C316.786957,301.116333 325.625153,289.048889 332.893524,276.538544 
	C350.588959,246.081161 357.092316,212.906616 353.051178,177.770401 
	C350.869415,158.800705 345.738464,140.677689 337.234833,123.616920 
	C325.480560,100.034462 309.121887,80.147179 287.824249,64.531891 
	C271.764160,52.756710 254.242218,43.808189 234.200546,38.198769 
z"/>
<path fill="#396336" opacity="1.000000" stroke="none" 
	d="
M234.584259,38.342522 
	C254.242218,43.808189 271.764160,52.756710 287.824249,64.531891 
	C309.121887,80.147179 325.480560,100.034462 337.234833,123.616920 
	C345.738464,140.677689 350.869415,158.800705 353.051178,177.770401 
	C357.092316,212.906616 350.588959,246.081161 332.893524,276.538544 
	C325.625153,289.048889 316.786957,301.116333 306.645447,311.394806 
	C282.370728,335.997284 252.925369,351.790070 218.417267,357.014557 
	C208.296692,358.546753 197.984848,360.109100 187.817932,359.796326 
	C158.678925,358.899872 130.890549,352.012634 106.096443,336.211578 
	C94.973274,329.122864 84.017029,321.183624 74.763359,311.864502 
	C50.668362,287.599060 34.712074,258.452484 29.342894,224.461624 
	C27.130770,210.457291 26.186359,195.888763 27.340176,181.795868 
	C29.447128,156.061142 37.367111,131.871475 51.417015,109.797913 
	C63.454803,90.885559 78.290825,74.735985 96.649391,62.011814 
	C118.250420,47.040325 141.994217,37.333420 168.273941,33.909824 
	C190.595123,31.001925 212.502899,32.498192 234.584259,38.342522 
M272.453400,86.836777 
	C272.650360,86.548706 272.847351,86.260628 273.497223,85.627647 
	C273.639343,85.278877 273.781464,84.930107 274.186188,84.668777 
	C274.186188,84.668777 274.299835,84.462929 274.299835,84.462929 
	C274.299835,84.462929 273.947571,84.528770 273.083496,84.240524 
	C270.675995,84.163368 268.186157,84.431328 265.890839,83.883835 
	C264.438477,83.537422 263.276184,81.974976 262.332153,80.821693 
	C262.203369,80.606361 262.074615,80.391029 261.712769,79.540886 
	C261.448273,78.924919 261.183777,78.308960 261.228851,77.707451 
	C261.228851,77.707451 261.325531,77.408821 261.325531,77.408821 
	C261.325531,77.408821 260.911743,77.419571 260.730621,76.860046 
	C260.467438,76.577240 260.204224,76.294434 259.821686,75.563087 
	C259.646149,75.255142 259.383301,75.128670 258.389343,74.865265 
	C256.917267,74.888237 255.445175,74.911201 253.470490,75.056267 
	C253.306290,75.108810 253.142075,75.161346 252.373352,74.866585 
	C248.928284,70.239349 245.483215,65.612114 241.870392,60.631500 
	C241.654800,60.757881 241.439224,60.884262 241.132492,61.882729 
	C240.652618,65.180809 240.172760,68.478882 239.719757,71.592255 
	C234.702530,68.720245 230.853897,66.517181 226.572159,64.499985 
	C226.530716,64.942009 226.489273,65.384026 226.187317,66.647972 
	C224.462006,71.443954 222.736694,76.239937 220.499359,81.321213 
	C220.348129,81.881790 220.196884,82.442368 219.569672,83.151611 
	C219.263229,83.327438 219.067062,83.586708 218.575668,84.126633 
	C218.285980,84.324883 218.197388,84.590195 217.997406,85.588318 
	C211.996536,89.142960 205.995682,92.697594 199.449478,96.375893 
	C198.938553,96.907127 198.427628,97.438370 197.355347,98.303474 
	C195.239532,100.543831 193.123703,102.784187 190.496353,105.315979 
	C190.336456,105.877686 190.176559,106.439392 189.372162,107.264824 
	C187.017105,112.876663 184.662048,118.488510 182.223846,124.685783 
	C182.290558,125.070145 182.357269,125.454498 182.191895,126.736542 
	C182.280472,128.882126 182.369049,131.027725 182.271286,133.724731 
	C182.296326,134.110046 182.321381,134.495377 182.376297,135.628098 
	C185.115509,141.729294 187.223999,148.238571 190.815079,153.788559 
	C193.219498,157.504593 196.128342,160.351517 193.505829,165.500595 
	C193.686707,166.950897 193.867584,168.401199 194.110291,170.531418 
	C194.795807,171.683685 195.481308,172.835953 196.067459,174.649307 
	C196.027115,175.092590 195.986786,175.535889 195.348862,176.277725 
	C193.906128,178.540054 192.463379,180.802399 190.510651,183.334991 
	C190.391022,183.890472 190.271408,184.445938 189.605774,185.304153 
	C189.068695,186.197952 188.531631,187.091751 187.487396,188.295868 
	C187.339844,188.864914 187.192291,189.433960 186.452072,190.344284 
	C184.966690,192.961243 183.481308,195.578201 181.347137,198.113373 
	C180.558334,197.770081 179.769531,197.426788 178.927444,196.320526 
	C173.978867,179.169144 157.800812,172.022476 144.560898,174.717911 
	C151.229996,181.645691 154.602142,190.171906 155.963867,199.555649 
	C157.345093,209.074051 162.314682,213.192825 170.947632,215.711975 
	C170.312866,216.859100 169.678085,218.006226 168.603836,219.463333 
	C168.456573,219.975571 168.309311,220.487823 167.536392,221.336990 
	C165.411942,224.799774 163.460541,228.390472 161.054977,231.645523 
	C160.355408,232.592117 158.357529,232.579269 156.849609,232.437790 
	C156.549332,232.008148 156.249039,231.578491 155.686661,230.496460 
	C154.735352,230.020538 153.784058,229.544617 152.888885,229.026077 
	C152.888885,229.026077 152.956238,229.046783 152.986588,228.473480 
	C152.659653,228.307617 152.332718,228.141754 151.442810,227.804626 
	C151.367889,229.542496 151.075333,231.303970 151.260666,233.013626 
	C151.733856,237.379333 152.420090,241.721970 153.006516,246.004150 
	C153.006516,246.004150 153.076859,245.993332 152.499054,246.250351 
	C152.341034,246.637192 152.183014,247.024048 151.679840,247.967422 
	C148.787720,252.981842 145.895599,257.996246 142.462769,263.213196 
	C141.960312,263.484924 141.457840,263.756622 140.866898,263.336090 
	C135.845001,257.511200 131.022064,251.498947 125.754204,245.905701 
	C118.019600,237.693390 108.001320,234.700760 96.438950,234.194550 
	C95.895477,234.333206 95.352005,234.471863 94.808525,234.610519 
	C95.556206,235.343140 96.303886,236.075760 97.297966,237.448929 
	C104.061798,244.447556 107.699539,253.152634 109.859337,262.351776 
	C112.520454,273.686127 116.005066,284.110016 128.116882,289.576996 
	C128.120010,290.051392 128.123154,290.525757 127.538498,291.368713 
	C123.705643,299.957428 119.872787,308.546143 115.633430,317.416534 
	C115.587280,317.874023 115.541130,318.331482 115.231560,319.522919 
	C115.161354,320.037567 115.091148,320.552216 114.517990,321.516296 
	C115.014877,322.647919 115.511772,323.779541 116.167313,325.481598 
	C117.557289,326.489380 118.835327,327.733734 120.360695,328.455322 
	C123.465706,329.924072 126.088913,330.378876 126.873344,325.589935 
	C127.419685,322.254608 128.839600,319.039673 130.057892,315.842834 
	C131.592468,311.816040 133.319260,307.862549 135.398285,303.683655 
	C135.492035,303.172729 135.585785,302.661835 135.937241,301.484650 
	C137.618073,300.268799 139.298904,299.052948 141.622437,297.672302 
	C144.702255,294.636139 148.455704,292.060699 149.393524,287.001038 
	C147.149170,287.001038 145.489532,287.001038 143.972336,286.284912 
	C144.980988,284.171478 145.989639,282.058044 147.477966,279.848602 
	C147.534744,279.288666 147.591522,278.728699 147.914825,277.464447 
	C150.313995,273.767822 152.713165,270.071228 155.035843,266.492462 
	C158.396072,268.391479 161.404129,271.042542 164.849777,271.868713 
	C177.577316,274.920410 189.662125,273.913605 199.963928,264.522430 
	C203.065674,261.694885 206.310028,258.720032 210.034225,256.978333 
	C212.845032,255.663788 216.524185,256.206024 220.188950,255.889725 
	C216.943985,249.539185 213.114227,244.335892 207.203339,240.877274 
	C198.129395,235.567856 188.936203,231.947403 178.597305,237.734909 
	C175.520691,239.457153 172.178101,240.704239 168.851898,241.584885 
	C168.808456,241.391830 168.764999,241.198776 169.105759,240.354355 
	C170.734787,237.258911 172.836349,234.310867 173.860947,231.026840 
	C174.901215,227.692596 176.574600,225.973679 180.619797,225.683914 
	C184.312485,221.585007 190.240631,219.166183 190.964142,212.651886 
	C189.014236,212.001984 187.504227,211.498688 186.091690,210.300308 
	C191.716721,200.712158 197.341736,191.124008 203.519592,181.438492 
	C204.003525,180.601959 204.487457,179.765411 205.651245,178.818024 
	C208.275681,178.772507 211.642395,179.741425 213.373322,178.474823 
	C217.231125,175.651962 220.725220,177.194122 224.522766,177.606400 
	C230.234833,178.226517 235.415085,180.403229 241.828476,179.109756 
	C249.965805,177.468597 256.417419,174.083588 260.032867,167.454468 
	C263.447754,161.193115 265.205627,153.809357 266.545563,146.703064 
	C267.650665,140.842194 266.939331,134.656158 267.328674,128.633316 
	C267.458832,126.620270 268.334290,124.592972 269.158966,122.698387 
	C272.214783,115.678261 277.359863,111.093651 285.058960,109.248009 
	C281.688538,108.787720 278.318115,108.327431 274.854034,107.200264 
	C274.220306,106.028580 273.586609,104.856895 273.306427,103.133232 
	C275.450348,100.746300 277.594269,98.359367 280.321472,95.842888 
	C280.544861,95.536308 280.768250,95.229729 280.998199,94.989708 
	C280.998199,94.989708 280.934021,94.971001 281.573395,94.963120 
	C282.046448,94.617188 282.519501,94.271263 282.997772,93.991295 
	C282.997772,93.991295 282.938477,93.961937 283.622742,93.997200 
	C284.054413,93.332146 284.486053,92.667099 284.989136,91.992882 
	C284.989136,91.992882 284.997925,92.064331 284.572021,91.417435 
	C281.424347,90.933662 278.246216,90.588234 275.142273,89.905640 
	C273.670410,89.581947 272.340149,88.614296 271.000580,87.973907 
	C271.000580,87.973907 270.935883,87.983101 271.441437,87.819862 
	C271.621246,87.525963 271.801056,87.232063 271.994995,86.998947 
	C271.994995,86.998947 271.936218,86.978012 272.453400,86.836777 
M192.515244,211.508102 
	C192.515244,211.508102 192.465332,211.518066 192.515244,211.508102 
z"/>
<path fill="#8BC53F" opacity="1.000000" stroke="none" 
	d="
M218.981201,83.929436 
	C219.067062,83.586708 219.263229,83.327438 220.038940,82.905045 
	C220.675934,82.117622 220.843658,81.576775 221.011368,81.035919 
	C222.736694,76.239937 224.462006,71.443954 226.453018,66.085983 
	C226.814224,65.120697 226.909744,64.717400 227.005264,64.314110 
	C230.853897,66.517181 234.702530,68.720245 239.719757,71.592255 
	C240.172760,68.478882 240.652618,65.180809 241.381241,61.441338 
	C241.629990,60.999950 242.038132,60.984886 242.038132,60.984886 
	C245.483215,65.612114 248.928284,70.239349 252.634186,75.374832 
	C253.415222,78.475243 253.935425,81.067406 254.455627,83.659576 
	C254.912201,83.550484 255.368774,83.441391 255.825348,83.332298 
	C255.207916,80.532921 254.590500,77.733551 253.973083,74.934174 
	C255.445175,74.911201 256.917267,74.888237 258.821014,75.202660 
	C259.440033,75.758705 259.669464,75.915901 259.941040,76.011627 
	C260.204224,76.294434 260.467438,76.577240 260.834839,77.205963 
	C260.939026,77.551888 260.919281,77.692993 260.919281,77.692993 
	C261.183777,78.308960 261.448273,78.924919 261.842957,80.053123 
	C261.973114,80.565361 261.983765,80.957939 261.983765,80.957932 
	C263.276184,81.974976 264.438477,83.537422 265.890839,83.883835 
	C268.186157,84.431328 270.675995,84.163368 273.515106,84.398514 
	C273.946716,84.556496 273.923584,84.581329 273.923584,84.581329 
	C273.781464,84.930107 273.639343,85.278877 272.979797,85.820648 
	C272.286987,86.335106 272.111603,86.656555 271.936218,86.978012 
	C271.936218,86.978012 271.994995,86.998947 271.713013,87.015579 
	C271.265961,87.349182 271.100922,87.666138 270.935883,87.983093 
	C270.935883,87.983101 271.000580,87.973907 270.614136,88.089745 
	C266.861633,88.820900 263.495544,89.436218 259.738983,90.034233 
	C257.520050,90.638695 255.691559,91.260468 253.863098,91.882233 
	C253.970215,92.268776 254.077347,92.655319 254.184479,93.041870 
	C256.134430,92.671127 258.084412,92.300385 260.466736,91.959488 
	C268.932007,92.014328 276.964966,92.039330 284.997925,92.064331 
	C284.997925,92.064331 284.989136,91.992882 284.827209,92.259705 
	C284.089691,93.004997 283.514099,93.483467 282.938477,93.961937 
	C282.938477,93.961937 282.997772,93.991295 282.684509,93.945053 
	C281.892181,94.256210 281.413116,94.613609 280.934021,94.971001 
	C280.934021,94.971001 280.998199,94.989708 280.705078,95.012390 
	C280.187408,95.347527 279.962799,95.659988 279.738190,95.972443 
	C277.594269,98.359367 275.450348,100.746300 272.804108,103.656738 
	C270.747894,104.788055 269.215210,105.848007 267.636322,105.921959 
	C262.091766,106.181625 256.531342,106.102066 250.555420,106.080292 
	C249.413254,104.521973 248.288574,103.095268 248.054367,101.534920 
	C247.534821,98.073273 247.461945,94.544586 247.206924,91.043236 
	C246.591232,91.100433 245.975540,91.157631 245.359848,91.214828 
	C245.844986,95.817940 246.330139,100.421051 246.648193,105.115097 
	C246.272629,105.362930 246.120575,105.562759 245.716705,105.896759 
	C245.292801,106.422531 245.177109,106.857056 245.061432,107.291580 
	C247.033249,107.143959 249.005066,106.996338 251.442413,106.913399 
	C259.587860,107.274437 267.267792,107.570786 274.947693,107.867142 
	C278.318115,108.327431 281.688538,108.787720 285.058960,109.248009 
	C277.359863,111.093651 272.214783,115.678261 269.158966,122.698387 
	C268.334290,124.592972 267.458832,126.620270 267.328674,128.633316 
	C266.939331,134.656158 267.650665,140.842194 266.545563,146.703064 
	C265.205627,153.809357 263.447754,161.193115 260.032867,167.454468 
	C256.417419,174.083588 249.965805,177.468597 241.828476,179.109756 
	C235.415085,180.403229 230.234833,178.226517 224.522766,177.606400 
	C220.725220,177.194122 217.231125,175.651962 213.373322,178.474823 
	C211.642395,179.741425 208.275681,178.772507 205.137573,178.642029 
	C204.075485,178.319977 203.527054,178.173935 202.737305,178.014587 
	C202.495956,178.001297 202.013199,177.976379 201.838226,177.736786 
	C201.105774,177.333176 200.548294,177.169159 199.774231,176.894440 
	C199.287476,176.586960 199.091614,176.332855 198.934540,175.684616 
	C197.988312,174.894562 197.077560,174.441391 196.166809,173.988205 
	C195.481308,172.835953 194.795807,171.683685 194.067307,169.794907 
	C194.023529,167.726395 194.022751,166.394409 194.021973,165.062408 
	C196.128342,160.351517 193.219498,157.504593 190.815079,153.788559 
	C187.223999,148.238571 185.115509,141.729294 182.508148,135.118073 
	C182.579193,134.129791 182.518417,133.651550 182.457642,133.173309 
	C182.369049,131.027725 182.280472,128.882126 182.442719,126.137070 
	C182.564697,125.058510 182.435852,124.579430 182.306992,124.100349 
	C184.662048,118.488510 187.017105,112.876663 189.932724,106.963837 
	C190.664810,106.116753 190.836349,105.570648 191.007874,105.024551 
	C193.123703,102.784187 195.239532,100.543831 197.945587,98.114632 
	C199.022141,97.367935 199.508469,96.810081 199.994812,96.252235 
	C205.995682,92.697594 211.996536,89.142960 218.313599,85.128120 
	C218.817871,84.455559 218.935013,84.209396 218.981201,83.929436 
M243.759171,82.579391 
	C243.411774,82.593712 243.064392,82.608025 242.716995,82.622337 
	C243.132492,82.760277 243.547974,82.898209 243.798340,83.509514 
	C243.731827,83.824455 243.665314,84.139397 243.598816,84.454338 
	C243.887421,84.489090 244.176025,84.523849 244.464630,84.558609 
	C244.317093,84.028244 244.169556,83.497887 243.759171,82.579391 
M200.017441,150.493805 
	C200.139694,150.758682 200.261948,151.023575 200.384186,151.288452 
	C200.264374,150.853287 200.144562,150.418121 200.011551,149.197510 
	C199.843246,147.953415 199.674927,146.709320 199.506622,145.465225 
	C198.898224,145.688904 198.289825,145.912567 197.681427,146.136246 
	C198.445297,147.433273 199.209183,148.730301 200.017441,150.493805 
M211.061752,173.655853 
	C211.708572,174.357910 212.355392,175.059967 213.002197,175.762024 
	C213.310776,175.348618 213.619339,174.935211 213.927902,174.521805 
	C212.953964,174.012497 211.980042,173.503204 210.991013,172.243698 
	C210.195862,167.669312 207.018738,166.702042 202.925537,166.285385 
	C201.955688,165.528000 200.985825,164.770615 200.015976,164.013229 
	C199.778183,164.414169 199.540405,164.815109 199.302612,165.216064 
	C200.528717,165.815399 201.754807,166.414749 203.071747,167.630829 
	C204.538284,168.991730 205.904404,170.490082 207.508820,171.662247 
	C208.479614,172.371536 209.819763,172.575241 211.061752,173.655853 
M216.044189,117.004181 
	C217.840042,116.001747 219.635910,114.999306 221.967438,113.697861 
	C217.246170,113.288849 215.299438,114.617081 216.044189,117.004181 
M201.990173,155.923950 
	C201.344879,155.031021 200.699570,154.138092 200.054260,153.245163 
	C199.762497,153.775360 199.146469,154.707108 199.229004,154.773758 
	C200.070343,155.453140 201.025391,155.991730 201.990173,155.923950 
M199.811554,138.465332 
	C199.642929,139.431656 199.474304,140.397995 199.305679,141.364319 
	C199.928635,141.322784 200.551605,141.281265 201.174561,141.239731 
	C200.833710,140.120453 200.492844,139.001160 199.811554,138.465332 
M203.921387,132.900513 
	C204.440933,131.487717 204.960464,130.074905 205.479996,128.662109 
	C205.019882,128.554001 204.559769,128.445908 204.099655,128.337799 
	C203.858490,129.926376 203.617340,131.514938 203.921387,132.900513 
M255.923828,85.235100 
	C256.480682,86.085312 257.037537,86.935516 257.594391,87.785721 
	C257.909851,87.491600 258.225311,87.197472 258.540741,86.903343 
	C257.868347,86.307594 257.195923,85.711845 255.923828,85.235100 
M224.639099,111.086800 
	C224.888260,111.658455 225.137421,112.230118 225.386597,112.801781 
	C225.861160,112.325645 226.335724,111.849510 226.810272,111.373367 
	C226.239456,111.124123 225.668625,110.874886 224.639099,111.086800 
M201.877350,160.252640 
	C202.363251,161.206894 202.849167,162.161133 203.335068,163.115372 
	C203.747116,162.822220 204.159164,162.529068 204.571213,162.235931 
	C203.836426,161.519547 203.101639,160.803177 201.877350,160.252640 
M236.771866,107.385689 
	C236.898056,107.863892 237.024246,108.342087 237.150436,108.820282 
	C237.524475,108.648071 237.898529,108.475868 238.272568,108.303665 
	C237.954117,107.974434 237.635651,107.645195 236.771866,107.385689 
M244.972473,86.791077 
	C244.857925,87.331322 244.743362,87.871567 244.628799,88.411812 
	C244.915375,88.407074 245.448746,88.426147 245.451843,88.394043 
	C245.505844,87.834518 245.494827,87.268730 244.972473,86.791077 
M206.709503,126.556847 
	C206.989838,126.289627 207.270157,126.022400 207.550491,125.755173 
	C207.439728,125.639160 207.238724,125.416206 207.231201,125.422562 
	C206.935532,125.671982 206.657486,125.942276 206.709503,126.556847 
M229.357483,109.981239 
	C229.897110,110.314453 230.436737,110.647675 230.976379,110.980888 
	C231.092453,110.757324 231.208542,110.533760 231.324631,110.310196 
	C230.777130,110.080650 230.229630,109.851105 229.357483,109.981239 
M233.597855,108.620277 
	C233.687119,108.970566 233.776382,109.320854 233.865616,109.671150 
	C233.912949,109.354347 233.960281,109.037544 233.597855,108.620277 
M260.333893,85.353600 
	C260.579681,85.470963 260.825439,85.588326 261.071228,85.705696 
	C261.143646,85.469757 261.216034,85.233826 261.288452,84.997887 
	C260.949768,84.973167 260.611084,84.948456 260.333893,85.353600 
M240.749069,76.830650 
	C240.586670,76.884056 240.424286,76.937462 240.261887,76.990875 
	C240.425323,77.043259 240.588776,77.095650 240.749069,76.830650 
M238.517731,73.416023 
	C238.517731,73.416023 238.580917,73.522720 238.517731,73.416023 
M240.587601,74.516701 
	C240.587601,74.516701 240.476974,74.582642 240.587601,74.516701 
M212.419083,117.484123 
	C212.419083,117.484123 212.522354,117.424103 212.419083,117.484123 
M209.416077,121.484146 
	C209.416077,121.484146 209.522736,121.421349 209.416077,121.484146 
M196.518036,162.413651 
	C196.518036,162.413651 196.581665,162.521072 196.518036,162.413651 
z"/>
<path fill="#8BC43E" opacity="1.000000" stroke="none" 
	d="
M202.013199,177.976379 
	C202.013199,177.976379 202.495956,178.001297 202.741119,178.368027 
	C202.979767,179.668457 202.973267,180.602158 202.966766,181.535858 
	C197.341736,191.124008 191.716721,200.712158 185.687180,210.711426 
	C184.186218,213.186829 183.565826,215.843582 181.891632,217.188843 
	C178.662994,219.783173 178.799774,222.570786 179.979401,225.853378 
	C176.574600,225.973679 174.901215,227.692596 173.860947,231.026840 
	C172.836349,234.310867 170.734787,237.258911 168.618652,240.745636 
	C167.933273,241.902267 167.735001,242.667618 167.536728,243.432953 
	C168.010284,243.011642 168.483826,242.590347 168.957367,242.169037 
	C172.178101,240.704239 175.520691,239.457153 178.597305,237.734909 
	C188.936203,231.947403 198.129395,235.567856 207.203339,240.877274 
	C213.114227,244.335892 216.943985,249.539185 220.188950,255.889725 
	C216.524185,256.206024 212.845032,255.663788 210.034225,256.978333 
	C206.310028,258.720032 203.065674,261.694885 199.963928,264.522430 
	C189.662125,273.913605 177.577316,274.920410 164.849777,271.868713 
	C161.404129,271.042542 158.396072,268.391479 155.035843,266.492462 
	C152.713165,270.071228 150.313995,273.767822 147.609909,277.985046 
	C147.202759,278.985321 147.100525,279.464966 146.998291,279.944611 
	C145.989639,282.058044 144.980988,284.171478 143.570679,286.721893 
	C141.317245,290.488251 137.751266,293.466156 140.979752,297.837097 
	C139.298904,299.052948 137.618073,300.268799 135.632492,301.978638 
	C135.206192,302.940857 135.084656,303.409149 134.963120,303.877411 
	C133.319260,307.862549 131.592468,311.816040 130.057892,315.842834 
	C128.839600,319.039673 127.419685,322.254608 126.873344,325.589935 
	C126.088913,330.378876 123.465706,329.924072 120.360695,328.455322 
	C118.835327,327.733734 117.557289,326.489380 115.940308,324.894592 
	C115.482513,323.227356 115.251732,322.147125 115.020950,321.066864 
	C115.091148,320.552216 115.161354,320.037567 115.496597,318.986603 
	C115.854401,318.011810 115.947174,317.573364 116.039932,317.134888 
	C119.872787,308.546143 123.705643,299.957428 128.082016,290.956787 
	C130.091873,287.701904 131.558212,284.858917 133.278427,281.821533 
	C133.900497,280.657257 134.268692,279.687439 134.636902,278.717621 
	C134.249451,278.626251 133.862000,278.534882 133.474548,278.443512 
	C133.306793,279.619598 133.139038,280.795685 132.665421,282.119690 
	C130.917664,284.467987 129.475784,286.668365 128.033905,288.868744 
	C116.005066,284.110016 112.520454,273.686127 109.859337,262.351776 
	C107.699539,253.152634 104.061798,244.447556 97.157745,236.822662 
	C97.014587,235.583740 97.011650,234.971100 97.008713,234.358459 
	C108.001320,234.700760 118.019600,237.693390 125.754204,245.905701 
	C131.022064,251.498947 135.845001,257.511200 140.664154,263.882812 
	C140.215973,265.530060 139.970520,266.630524 139.725067,267.731018 
	C140.231262,267.901550 140.737457,268.072113 141.243668,268.242645 
	C141.830261,266.498657 142.416870,264.754639 143.003479,263.010651 
	C145.895599,257.996246 148.787720,252.981842 152.120697,247.533173 
	C152.733337,246.730392 152.905090,246.361862 153.076843,245.993332 
	C153.076859,245.993332 153.006516,246.004150 153.290482,245.799255 
	C153.784775,243.978928 154.269760,242.343033 154.151093,240.752167 
	C153.859756,236.846619 153.290314,232.961838 152.832748,229.068695 
	C153.784058,229.544617 154.735352,230.020538 155.854218,231.098206 
	C156.332779,232.135391 156.643768,232.570801 156.954773,233.006226 
	C158.357529,232.579269 160.355408,232.592117 161.054977,231.645523 
	C163.460541,228.390472 165.411942,224.799774 168.048843,220.994324 
	C168.721970,220.152206 168.882629,219.652771 169.043304,219.153351 
	C169.678085,218.006226 170.312866,216.859100 171.209106,215.168716 
	C171.657166,213.753281 171.843765,212.881088 172.397919,211.999161 
	C173.803192,211.083420 175.141388,210.359970 175.823212,209.237762 
	C178.011353,205.636215 179.956833,201.887238 181.995941,198.195160 
	C183.481308,195.578201 184.966690,192.961243 186.982666,189.996399 
	C187.673706,189.094177 187.834137,188.539871 187.994568,187.985550 
	C188.531631,187.091751 189.068695,186.197952 190.085144,184.970337 
	C190.716568,184.112579 190.868607,183.588654 191.020630,183.064743 
	C192.463379,180.802399 193.906128,178.540054 196.026367,176.137100 
	C197.459274,176.004807 198.214661,176.013153 198.970047,176.021484 
	C199.091614,176.332855 199.287476,176.586960 199.946960,177.137482 
	C200.895248,177.652908 201.454224,177.814651 202.013199,177.976379 
M162.358582,252.273041 
	C158.589813,255.270996 156.559769,259.120972 156.824326,264.114502 
	C158.889053,260.080322 160.953766,256.046112 163.565140,251.585449 
	C164.537445,249.500793 165.509750,247.416122 166.482056,245.331467 
	C165.908630,245.117355 165.335220,244.903259 164.761810,244.689148 
	C164.167435,247.119080 163.573044,249.548996 162.358582,252.273041 
M139.083206,271.802979 
	C139.291458,271.108521 139.499710,270.414093 139.707977,269.719635 
	C139.374588,269.559265 139.041199,269.398895 138.707809,269.238556 
	C137.636124,270.953827 136.564423,272.669128 135.492737,274.384430 
	C135.879135,274.647461 136.265549,274.910461 136.651947,275.173492 
	C137.372604,274.252075 138.093277,273.330688 139.083206,271.802979 
M158.573730,237.295166 
	C158.301346,237.010040 158.031525,236.722137 157.742615,236.454865 
	C157.734985,236.447815 157.519897,236.665039 157.401566,236.777679 
	C157.674362,237.063004 157.947144,237.348312 158.573730,237.295166 
M155.641129,239.475174 
	C155.846146,239.528458 156.051147,239.581726 156.256165,239.635010 
	C156.124420,239.504425 155.992691,239.373856 155.641129,239.475174 
z"/>
<path fill="#89C23E" opacity="1.000000" stroke="none" 
	d="
M172.030350,212.008911 
	C171.843765,212.881088 171.657166,213.753281 171.201019,214.833115 
	C162.314682,213.192825 157.345093,209.074051 155.963867,199.555649 
	C154.602142,190.171906 151.229996,181.645691 144.560898,174.717911 
	C157.800812,172.022476 173.978867,179.169144 178.959259,197.090714 
	C176.670822,202.576904 174.350586,207.292908 172.030350,212.008911 
z"/>
<path fill="#85BC3C" opacity="1.000000" stroke="none" 
	d="
M180.299591,225.768646 
	C178.799774,222.570786 178.662994,219.783173 181.891632,217.188843 
	C183.565826,215.843582 184.186218,213.186829 185.638458,211.058975 
	C187.504227,211.498688 189.014236,212.001984 190.964142,212.651886 
	C190.240631,219.166183 184.312485,221.585007 180.299591,225.768646 
z"/>
<path fill="#86BD3C" opacity="1.000000" stroke="none" 
	d="
M141.301086,297.754700 
	C137.751266,293.466156 141.317245,290.488251 143.499451,287.079956 
	C145.489532,287.001038 147.149170,287.001038 149.393524,287.001038 
	C148.455704,292.060699 144.702255,294.636139 141.301086,297.754700 
z"/>
<path fill="#1F3014" opacity="1.000000" stroke="none" 
	d="
M284.784973,91.740883 
	C276.964966,92.039330 268.932007,92.014328 260.439331,91.644165 
	C260.029572,90.883186 260.079529,90.467361 260.129456,90.051537 
	C263.495544,89.436218 266.861633,88.820900 270.586731,88.071983 
	C272.340149,88.614296 273.670410,89.581947 275.142273,89.905640 
	C278.246216,90.588234 281.424347,90.933662 284.784973,91.740883 
z"/>
<path fill="#233211" opacity="1.000000" stroke="none" 
	d="
M250.976929,106.151291 
	C256.531342,106.102066 262.091766,106.181625 267.636322,105.921959 
	C269.215210,105.848007 270.747894,104.788055 272.627319,103.932732 
	C273.586609,104.856895 274.220306,106.028580 274.900879,107.533707 
	C267.267792,107.570786 259.587860,107.274437 251.446777,106.739059 
	C250.985626,106.500031 250.976929,106.151291 250.976929,106.151291 
z"/>
<path fill="#1D2C11" opacity="1.000000" stroke="none" 
	d="
M152.860809,229.047394 
	C153.290314,232.961838 153.859756,236.846619 154.151093,240.752167 
	C154.269760,242.343033 153.784775,243.978928 153.297760,245.834076 
	C152.420090,241.721970 151.733856,237.379333 151.260666,233.013626 
	C151.075333,231.303970 151.367889,229.542496 151.774109,228.178513 
	C152.389008,228.717194 152.672623,228.881989 152.956238,229.046783 
	C152.956238,229.046783 152.888885,229.026077 152.860809,229.047394 
z"/>
<path fill="#89C23E" opacity="1.000000" stroke="none" 
	d="
M172.397919,211.999161 
	C174.350586,207.292908 176.670822,202.576904 178.985901,197.472198 
	C179.769531,197.426788 180.558334,197.770081 181.671539,198.154266 
	C179.956833,201.887238 178.011353,205.636215 175.823212,209.237762 
	C175.141388,210.359970 173.803192,211.083420 172.397919,211.999161 
z"/>
<path fill="#89C23E" opacity="1.000000" stroke="none" 
	d="
M128.075394,289.222870 
	C129.475784,286.668365 130.917664,284.467987 132.677979,282.131836 
	C132.996384,281.996094 133.024551,282.015961 133.024551,282.015961 
	C131.558212,284.858917 130.091873,287.701904 128.375916,290.772522 
	C128.123154,290.525757 128.120010,290.051392 128.075394,289.222870 
z"/>
<path fill="#87BF3D" opacity="1.000000" stroke="none" 
	d="
M253.721786,74.995224 
	C254.590500,77.733551 255.207916,80.532921 255.825348,83.332298 
	C255.368774,83.441391 254.912201,83.550484 254.455627,83.659576 
	C253.935425,81.067406 253.415222,78.475243 252.936432,75.548477 
	C253.142075,75.161346 253.306290,75.108810 253.721786,74.995224 
z"/>
<path fill="#89C23E" opacity="1.000000" stroke="none" 
	d="
M142.733124,263.111938 
	C142.416870,264.754639 141.830261,266.498657 141.243668,268.242645 
	C140.737457,268.072113 140.231262,267.901550 139.725067,267.731018 
	C139.970520,266.630524 140.215973,265.530060 140.708405,264.228943 
	C141.457840,263.756622 141.960312,263.484924 142.733124,263.111938 
z"/>
<path fill="#8AC33E" opacity="1.000000" stroke="none" 
	d="
M96.723831,234.276505 
	C97.011650,234.971100 97.014587,235.583740 97.034546,236.502380 
	C96.303886,236.075760 95.556206,235.343140 94.808525,234.610519 
	C95.352005,234.471863 95.895477,234.333206 96.723831,234.276505 
z"/>
<path fill="#87BF3D" opacity="1.000000" stroke="none" 
	d="
M198.934540,175.684616 
	C198.214661,176.013153 197.459274,176.004807 196.325165,175.987823 
	C195.986786,175.535889 196.027115,175.092590 196.117142,174.318756 
	C197.077560,174.441391 197.988312,174.894562 198.934540,175.684616 
z"/>
<path fill="#87BF3D" opacity="1.000000" stroke="none" 
	d="
M203.243164,181.487183 
	C202.973267,180.602158 202.979767,179.668457 202.982452,178.381317 
	C203.527054,178.173935 204.075485,178.319977 204.797638,178.697449 
	C204.487457,179.765411 204.003525,180.601959 203.243164,181.487183 
z"/>
<path fill="#89C23E" opacity="1.000000" stroke="none" 
	d="
M168.904633,241.876953 
	C168.483826,242.590347 168.010284,243.011642 167.536728,243.432953 
	C167.735001,242.667618 167.933273,241.902267 168.426544,241.071335 
	C168.764999,241.198776 168.808456,241.391830 168.904633,241.876953 
z"/>
<path fill="#89C23E" opacity="1.000000" stroke="none" 
	d="
M114.769470,321.291565 
	C115.251732,322.147125 115.482513,323.227356 115.860977,324.609375 
	C115.511772,323.779541 115.014877,322.647919 114.769470,321.291565 
z"/>
<path fill="#87BF3D" opacity="1.000000" stroke="none" 
	d="
M193.763901,165.281494 
	C194.022751,166.394409 194.023529,167.726395 194.036392,169.454956 
	C193.867584,168.401199 193.686707,166.950897 193.763901,165.281494 
z"/>
<path fill="#1F3014" opacity="1.000000" stroke="none" 
	d="
M283.280609,93.979568 
	C283.514099,93.483467 284.089691,93.004997 284.791504,92.264290 
	C284.486053,92.667099 284.054413,93.332146 283.280609,93.979568 
z"/>
<path fill="#89C23E" opacity="1.000000" stroke="none" 
	d="
M147.238129,279.896606 
	C147.100525,279.464966 147.202759,278.985321 147.476654,278.337219 
	C147.591522,278.728699 147.534744,279.288666 147.238129,279.896606 
z"/>
<path fill="#89C23E" opacity="1.000000" stroke="none" 
	d="
M135.180695,303.780518 
	C135.084656,303.409149 135.206192,302.940857 135.503632,302.311768 
	C135.585785,302.661835 135.492035,303.172729 135.180695,303.780518 
z"/>
<path fill="#8AC33E" opacity="1.000000" stroke="none" 
	d="
M199.722137,96.314064 
	C199.508469,96.810081 199.022141,97.367935 198.226257,97.947701 
	C198.427628,97.438370 198.938553,96.907127 199.722137,96.314064 
z"/>
<path fill="#89C23E" opacity="1.000000" stroke="none" 
	d="
M168.823563,219.308334 
	C168.882629,219.652771 168.721970,220.152206 168.361664,220.825867 
	C168.309311,220.487823 168.456573,219.975571 168.823563,219.308334 
z"/>
<path fill="#84BB3B" opacity="1.000000" stroke="none" 
	d="
M156.902191,232.722000 
	C156.643768,232.570801 156.332779,232.135391 155.985275,231.424408 
	C156.249039,231.578491 156.549332,232.008148 156.902191,232.722000 
z"/>
<path fill="#8AC33E" opacity="1.000000" stroke="none" 
	d="
M220.755371,81.178566 
	C220.843658,81.576775 220.675934,82.117622 220.276947,82.830711 
	C220.196884,82.442368 220.348129,81.881790 220.755371,81.178566 
z"/>
<path fill="#8AC33E" opacity="1.000000" stroke="none" 
	d="
M226.788712,64.407043 
	C226.909744,64.717400 226.814224,65.120697 226.583282,65.675018 
	C226.489273,65.384026 226.530716,64.942009 226.788712,64.407043 
z"/>
<path fill="#89C23E" opacity="1.000000" stroke="none" 
	d="
M115.836685,317.275696 
	C115.947174,317.573364 115.854401,318.011810 115.628311,318.619629 
	C115.541130,318.331482 115.587280,317.874023 115.836685,317.275696 
z"/>
<path fill="#1F3014" opacity="1.000000" stroke="none" 
	d="
M281.253723,94.967056 
	C281.413116,94.613609 281.892181,94.256210 282.681915,93.912079 
	C282.519501,94.271263 282.046448,94.617188 281.253723,94.967056 
z"/>
<path fill="#89C23E" opacity="1.000000" stroke="none" 
	d="
M187.740982,188.140717 
	C187.834137,188.539871 187.673706,189.094177 187.278992,189.825745 
	C187.192291,189.433960 187.339844,188.864914 187.740982,188.140717 
z"/>
<path fill="#89C23E" opacity="1.000000" stroke="none" 
	d="
M190.765640,183.199860 
	C190.868607,183.588654 190.716568,184.112579 190.358154,184.818970 
	C190.271408,184.445938 190.391022,183.890472 190.765640,183.199860 
z"/>
<path fill="#8AC33E" opacity="1.000000" stroke="none" 
	d="
M190.752121,105.170258 
	C190.836349,105.570648 190.664810,106.116753 190.254974,106.831970 
	C190.176559,106.439392 190.336456,105.877686 190.752121,105.170258 
z"/>
<path fill="#8AC33E" opacity="1.000000" stroke="none" 
	d="
M182.364471,133.449020 
	C182.518417,133.651550 182.579193,134.129791 182.493195,134.744354 
	C182.321381,134.495377 182.296326,134.110046 182.364471,133.449020 
z"/>
<path fill="#8AC33E" opacity="1.000000" stroke="none" 
	d="
M182.265411,124.393066 
	C182.435852,124.579430 182.564697,125.058510 182.558777,125.688225 
	C182.357269,125.454498 182.290558,125.070145 182.265411,124.393066 
z"/>
<path fill="#1F3014" opacity="1.000000" stroke="none" 
	d="
M280.029846,95.907669 
	C279.962799,95.659988 280.187408,95.347527 280.701843,94.979111 
	C280.768250,95.229729 280.544861,95.536308 280.029846,95.907669 
z"/>
<path fill="#8AC33E" opacity="1.000000" stroke="none" 
	d="
M218.778442,84.028030 
	C218.935013,84.209396 218.817871,84.455559 218.469849,84.795250 
	C218.197388,84.590195 218.285980,84.324883 218.778442,84.028030 
z"/>
<path fill="#1F3014" opacity="1.000000" stroke="none" 
	d="
M271.188660,87.901474 
	C271.100922,87.666138 271.265961,87.349182 271.705933,86.985199 
	C271.801056,87.232063 271.621246,87.525963 271.188660,87.901474 
z"/>
<path fill="#87BF3D" opacity="1.000000" stroke="none" 
	d="
M259.881348,75.787354 
	C259.669464,75.915901 259.440033,75.758705 259.142883,75.361862 
	C259.383301,75.128670 259.646149,75.255142 259.881348,75.787354 
z"/>
<path fill="#87BF3D" opacity="1.000000" stroke="none" 
	d="
M261.074066,77.700226 
	C260.919281,77.692993 260.939026,77.551888 260.925385,77.485733 
	C260.911743,77.419571 261.325531,77.408821 261.325531,77.408821 
	C261.325531,77.408821 261.228851,77.707451 261.074066,77.700226 
z"/>
<path fill="#1D2C11" opacity="1.000000" stroke="none" 
	d="
M152.787949,246.121841 
	C152.905090,246.361862 152.733337,246.730392 152.293274,247.254913 
	C152.183014,247.024048 152.341034,246.637192 152.787949,246.121841 
z"/>
<path fill="#87BF3D" opacity="1.000000" stroke="none" 
	d="
M262.157959,80.889816 
	C261.983765,80.957939 261.973114,80.565361 261.959473,80.370529 
	C262.074615,80.391029 262.203369,80.606361 262.157959,80.889816 
z"/>
<path fill="#1F3014" opacity="1.000000" stroke="none" 
	d="
M272.194824,86.907394 
	C272.111603,86.656555 272.286987,86.335106 272.753357,85.993103 
	C272.847351,86.260628 272.650360,86.548706 272.194824,86.907394 
z"/>
<path fill="#89C13E" opacity="1.000000" stroke="none" 
	d="
M241.954254,60.808193 
	C242.038132,60.984886 241.629990,60.999950 241.426819,61.005299 
	C241.439224,60.884262 241.654800,60.757881 241.954254,60.808193 
z"/>
<path fill="#86BE3C" opacity="1.000000" stroke="none" 
	d="
M274.054871,84.625053 
	C273.923584,84.581329 273.946716,84.556496 273.947144,84.542633 
	C273.947571,84.528770 274.299835,84.462929 274.299835,84.462929 
	C274.299835,84.462929 274.186188,84.668777 274.054871,84.625053 
z"/>
<path fill="#8BC43E" opacity="1.000000" stroke="none" 
	d="
M152.971405,228.760132 
	C152.672623,228.881989 152.389008,228.717194 152.055603,228.264145 
	C152.332718,228.141754 152.659653,228.307617 152.971405,228.760132 
z"/>
<path fill="#85BC3C" opacity="1.000000" stroke="none" 
	d="
M192.490295,211.513092 
	C192.465332,211.518066 192.515244,211.508102 192.490295,211.513092 
z"/>
<path fill="#141C09" opacity="1.000000" stroke="none" 
	d="
M250.555420,106.080299 
	C250.976929,106.151291 250.985626,106.500031 250.981247,106.674370 
	C249.005066,106.996338 247.033249,107.143959 245.061432,107.291580 
	C245.177109,106.857056 245.292801,106.422531 245.953186,105.901352 
	C246.857941,105.653275 246.963730,105.389755 246.815277,105.024162 
	C246.330139,100.421051 245.844986,95.817940 245.359848,91.214828 
	C245.975540,91.157631 246.591232,91.100433 247.206924,91.043236 
	C247.461945,94.544586 247.534821,98.073273 248.054367,101.534920 
	C248.288574,103.095268 249.413254,104.521973 250.555420,106.080299 
z"/>
<path fill="#87BF3D" opacity="1.000000" stroke="none" 
	d="
M203.019516,166.979691 
	C207.018738,166.702042 210.195862,167.669312 210.995514,172.621857 
	C211.000000,173.000000 210.993958,173.006104 210.993958,173.006104 
	C209.819763,172.575241 208.479614,172.371536 207.508820,171.662247 
	C205.904404,170.490082 204.538284,168.991730 203.036530,167.314636 
	C203.001297,166.998459 203.019516,166.979691 203.019516,166.979691 
z"/>
<path fill="#8AC33E" opacity="1.000000" stroke="none" 
	d="
M215.838959,117.225571 
	C215.299438,114.617081 217.246170,113.288849 221.967438,113.697861 
	C219.635910,114.999306 217.840042,116.001747 215.838959,117.225571 
z"/>
<path fill="#86BE3C" opacity="1.000000" stroke="none" 
	d="
M259.739014,90.034233 
	C260.079529,90.467361 260.029572,90.883186 260.007019,91.614326 
	C258.084412,92.300385 256.134430,92.671127 254.184479,93.041870 
	C254.077347,92.655319 253.970215,92.268776 253.863098,91.882233 
	C255.691559,91.260468 257.520050,90.638695 259.739014,90.034233 
z"/>
<path fill="#8AC33E" opacity="1.000000" stroke="none" 
	d="
M201.969391,156.246826 
	C201.025391,155.991730 200.070343,155.453140 199.229004,154.773758 
	C199.146469,154.707108 199.762497,153.775360 200.054260,153.245163 
	C200.699570,154.138092 201.344879,155.031021 201.969391,156.246826 
z"/>
<path fill="#8AC33E" opacity="1.000000" stroke="none" 
	d="
M199.981781,138.173615 
	C200.492844,139.001160 200.833710,140.120453 201.174561,141.239731 
	C200.551605,141.281265 199.928635,141.322784 199.305679,141.364319 
	C199.474304,140.397995 199.642929,139.431656 199.981781,138.173615 
z"/>
<path fill="#8AC33E" opacity="1.000000" stroke="none" 
	d="
M199.973053,150.027344 
	C199.209183,148.730301 198.445297,147.433273 197.681427,146.136246 
	C198.289825,145.912567 198.898224,145.688904 199.506622,145.465225 
	C199.674927,146.709320 199.843246,147.953415 200.004486,149.600311 
	C199.997406,150.003113 199.973053,150.027344 199.973053,150.027344 
z"/>
<path fill="#8AC33E" opacity="1.000000" stroke="none" 
	d="
M203.648788,133.002014 
	C203.617340,131.514938 203.858490,129.926376 204.099655,128.337799 
	C204.559769,128.445908 205.019882,128.554001 205.479996,128.662109 
	C204.960464,130.074905 204.440933,131.487717 203.648788,133.002014 
z"/>
<path fill="#86BE3C" opacity="1.000000" stroke="none" 
	d="
M256.223663,85.175598 
	C257.195923,85.711845 257.868347,86.307594 258.540741,86.903343 
	C258.225311,87.197472 257.909851,87.491600 257.594391,87.785721 
	C257.037537,86.935516 256.480682,86.085312 256.223663,85.175598 
z"/>
<path fill="#8AC33E" opacity="1.000000" stroke="none" 
	d="
M224.868454,110.856216 
	C225.668625,110.874886 226.239456,111.124123 226.810272,111.373367 
	C226.335724,111.849510 225.861160,112.325645 225.386597,112.801773 
	C225.137421,112.230118 224.888260,111.658455 224.868454,110.856216 
z"/>
<path fill="#87BF3D" opacity="1.000000" stroke="none" 
	d="
M202.991089,167.006271 
	C201.754807,166.414749 200.528717,165.815399 199.302612,165.216064 
	C199.540405,164.815109 199.778183,164.414169 200.015976,164.013229 
	C200.985825,164.770615 201.955688,165.528000 202.972534,166.632538 
	C203.019516,166.979691 203.001297,166.998459 202.991089,167.006271 
z"/>
<path fill="#87BF3D" opacity="1.000000" stroke="none" 
	d="
M211.003052,172.996948 
	C211.980042,173.503204 212.953964,174.012497 213.927902,174.521805 
	C213.619339,174.935211 213.310776,175.348618 213.002197,175.762024 
	C212.355392,175.059967 211.708572,174.357910 211.027863,173.330978 
	C210.993958,173.006104 211.000000,173.000000 211.003052,172.996948 
z"/>
<path fill="#8AC33E" opacity="1.000000" stroke="none" 
	d="
M202.122101,160.169708 
	C203.101639,160.803177 203.836426,161.519547 204.571213,162.235931 
	C204.159164,162.529068 203.747116,162.822220 203.335068,163.115372 
	C202.849167,162.161133 202.363251,161.206894 202.122101,160.169708 
z"/>
<path fill="#8AC33E" opacity="1.000000" stroke="none" 
	d="
M237.044525,107.350830 
	C237.635651,107.645195 237.954117,107.974434 238.272568,108.303665 
	C237.898529,108.475868 237.524475,108.648071 237.150436,108.820282 
	C237.024246,108.342087 236.898056,107.863892 237.044525,107.350830 
z"/>
<path fill="#89C13E" opacity="1.000000" stroke="none" 
	d="
M245.235214,86.747688 
	C245.494827,87.268730 245.505844,87.834518 245.451843,88.394043 
	C245.448746,88.426147 244.915375,88.407074 244.628799,88.411812 
	C244.743362,87.871567 244.857925,87.331322 245.235214,86.747688 
z"/>
<path fill="#8AC33E" opacity="1.000000" stroke="none" 
	d="
M206.543320,126.383347 
	C206.657486,125.942276 206.935532,125.671982 207.231201,125.422562 
	C207.238724,125.416206 207.439728,125.639160 207.550491,125.755173 
	C207.270157,126.022400 206.989838,126.289627 206.543320,126.383347 
z"/>
<path fill="#8AC33E" opacity="1.000000" stroke="none" 
	d="
M229.519806,109.801407 
	C230.229630,109.851105 230.777130,110.080650 231.324631,110.310196 
	C231.208542,110.533760 231.092453,110.757324 230.976379,110.980888 
	C230.436737,110.647675 229.897110,110.314453 229.519806,109.801407 
z"/>
<path fill="#8AC33E" opacity="1.000000" stroke="none" 
	d="
M233.802734,108.670517 
	C233.960281,109.037544 233.912949,109.354347 233.865631,109.671150 
	C233.776382,109.320854 233.687119,108.970566 233.802734,108.670517 
z"/>
<path fill="#86BE3C" opacity="1.000000" stroke="none" 
	d="
M260.303162,85.138672 
	C260.611084,84.948456 260.949768,84.973167 261.288452,84.997887 
	C261.216034,85.233826 261.143646,85.469757 261.071228,85.705696 
	C260.825439,85.588326 260.579681,85.470963 260.303162,85.138672 
z"/>
<path fill="#89C13E" opacity="1.000000" stroke="none" 
	d="
M244.022018,82.967522 
	C244.169556,83.497887 244.317093,84.028244 244.464630,84.558609 
	C244.176025,84.523849 243.887421,84.489090 243.598816,84.454338 
	C243.665314,84.139397 243.731827,83.824455 243.896667,83.256607 
	C243.995010,83.003700 244.022018,82.967522 244.022018,82.967522 
z"/>
<path fill="#89C13E" opacity="1.000000" stroke="none" 
	d="
M243.979248,83.019928 
	C243.547974,82.898209 243.132492,82.760277 242.716995,82.622337 
	C243.064392,82.608025 243.411774,82.593712 243.890594,82.773453 
	C244.022018,82.967522 243.995010,83.003700 243.979248,83.019928 
z"/>
<path fill="#89C13E" opacity="1.000000" stroke="none" 
	d="
M240.750641,76.989342 
	C240.588776,77.095650 240.425323,77.043259 240.261887,76.990875 
	C240.424286,76.937462 240.586670,76.884056 240.750641,76.989342 
z"/>
<path fill="#87BF3D" opacity="1.000000" stroke="none" 
	d="
M201.838226,177.736786 
	C201.454224,177.814651 200.895248,177.652908 200.163544,177.248154 
	C200.548294,177.169159 201.105774,177.333176 201.838226,177.736786 
z"/>
<path fill="#8AC33E" opacity="1.000000" stroke="none" 
	d="
M200.011078,149.993042 
	C200.144562,150.418121 200.264374,150.853287 200.384186,151.288452 
	C200.261948,151.023575 200.139694,150.758682 199.995239,150.260574 
	C199.973053,150.027344 199.997406,150.003113 200.011078,149.993042 
z"/>
<path fill="#8AC33E" opacity="1.000000" stroke="none" 
	d="
M246.648193,105.115097 
	C246.963730,105.389755 246.857941,105.653275 246.261414,105.810112 
	C246.120575,105.562759 246.272629,105.362930 246.648193,105.115097 
z"/>
<path fill="#89C13E" opacity="1.000000" stroke="none" 
	d="
M238.549316,73.469376 
	C238.580917,73.522720 238.517731,73.416023 238.549316,73.469376 
z"/>
<path fill="#89C13E" opacity="1.000000" stroke="none" 
	d="
M240.532288,74.549667 
	C240.476974,74.582642 240.587601,74.516701 240.532288,74.549667 
z"/>
<path fill="#8AC33E" opacity="1.000000" stroke="none" 
	d="
M212.470718,117.454117 
	C212.522354,117.424103 212.419083,117.484123 212.470718,117.454117 
z"/>
<path fill="#8AC33E" opacity="1.000000" stroke="none" 
	d="
M209.469406,121.452744 
	C209.522736,121.421349 209.416077,121.484146 209.469406,121.452744 
z"/>
<path fill="#87BF3D" opacity="1.000000" stroke="none" 
	d="
M196.549850,162.467361 
	C196.581665,162.521072 196.518036,162.413651 196.549850,162.467361 
z"/>
<path fill="#89C23E" opacity="1.000000" stroke="none" 
	d="
M163.018494,252.011932 
	C160.953766,256.046112 158.889053,260.080322 156.824326,264.114502 
	C156.559769,259.120972 158.589813,255.270996 162.678040,252.135269 
	C162.997513,251.997498 163.018509,252.011948 163.018494,252.011932 
z"/>
<path fill="#89C23E" opacity="1.000000" stroke="none" 
	d="
M138.948578,272.106140 
	C138.093277,273.330688 137.372604,274.252075 136.651947,275.173492 
	C136.265549,274.910461 135.879135,274.647461 135.492737,274.384430 
	C136.564423,272.669128 137.636124,270.953827 138.707809,269.238556 
	C139.041199,269.398895 139.374588,269.559265 139.707977,269.719635 
	C139.499710,270.414093 139.291458,271.108521 138.948578,272.106140 
z"/>
<path fill="#89C23E" opacity="1.000000" stroke="none" 
	d="
M162.988098,251.988220 
	C163.573044,249.548996 164.167435,247.119080 164.761810,244.689148 
	C165.335220,244.903259 165.908630,245.117355 166.482056,245.331467 
	C165.509750,247.416122 164.537445,249.500793 163.291824,251.798706 
	C163.018509,252.011948 162.997513,251.997498 162.988098,251.988220 
z"/>
<path fill="#89C23E" opacity="1.000000" stroke="none" 
	d="
M132.983826,281.983948 
	C133.139038,280.795685 133.306793,279.619598 133.474548,278.443512 
	C133.862000,278.534882 134.249451,278.626251 134.636902,278.717621 
	C134.268692,279.687439 133.900497,280.657257 133.278427,281.821533 
	C133.024551,282.015961 132.996384,281.996094 132.983826,281.983948 
z"/>
<path fill="#84BB3B" opacity="1.000000" stroke="none" 
	d="
M158.396835,237.464401 
	C157.947144,237.348312 157.674362,237.063004 157.401566,236.777679 
	C157.519897,236.665039 157.734985,236.447815 157.742615,236.454865 
	C158.031525,236.722137 158.301346,237.010040 158.396835,237.464401 
z"/>
<path fill="#84BB3B" opacity="1.000000" stroke="none" 
	d="
M155.751038,239.359222 
	C155.992691,239.373856 156.124420,239.504425 156.256165,239.635010 
	C156.051147,239.581726 155.846146,239.528458 155.751038,239.359222 
z"/>
</svg>