<svg version="1.1" id="Layer_1" xmlns="http://www.w3.org/2000/svg" xmlns:xlink="http://www.w3.org/1999/xlink" x="0px" y="0px"
	 width="100%" viewBox="0 0 82 83" enable-background="new 0 0 82 83" xml:space="preserve">
<path fill="#FFFFFF" opacity="1.000000" stroke="none" 
	d="
M83.000000,25.999962 
	C83.000000,45.666637 83.000000,64.833298 83.000000,83.999969 
	C55.666687,83.999985 28.333376,83.999985 1.000048,83.999992 
	C1.000032,56.333363 1.000032,28.666727 1.000016,1.000067 
	C28.333296,1.000045 55.666592,1.000045 82.999939,1.000022 
	C83.000000,9.166648 83.000000,17.333296 83.000000,25.999962 
M74.674294,46.499969 
	C74.673889,36.505379 74.746017,26.510061 74.645485,16.516481 
	C74.586586,10.661898 72.881096,8.983638 67.235130,8.970558 
	C50.744152,8.932355 34.252979,8.933935 17.761990,8.969289 
	C11.951262,8.981746 10.365401,10.537028 10.345695,16.420546 
	C10.290459,32.911423 10.281820,49.402805 10.352612,65.893570 
	C10.375710,71.273987 12.169057,73.001152 17.661026,73.020912 
	C34.151878,73.080231 50.643223,73.081612 67.134071,73.021576 
	C72.878731,73.000664 74.533943,71.324760 74.647202,65.489632 
	C74.763573,59.495136 74.673599,53.496632 74.674294,46.499969 
z"/>
<path fill="#819F51" opacity="1.000000" stroke="none" 
	d="
M74.674103,46.999924 
	C74.673599,53.496632 74.763573,59.495136 74.647202,65.489632 
	C74.533943,71.324760 72.878731,73.000664 67.134071,73.021576 
	C50.643223,73.081612 34.151878,73.080231 17.661026,73.020912 
	C12.169057,73.001152 10.375710,71.273987 10.352612,65.893570 
	C10.281820,49.402805 10.290459,32.911423 10.345695,16.420546 
	C10.365401,10.537028 11.951262,8.981746 17.761990,8.969289 
	C34.252979,8.933935 50.744152,8.932355 67.235130,8.970558 
	C72.881096,8.983638 74.586586,10.661898 74.645485,16.516481 
	C74.746017,26.510061 74.673889,36.505379 74.674103,46.999924 
M14.189371,56.471535 
	C14.189540,59.136669 14.358746,61.815289 14.147528,64.463562 
	C13.877280,67.851952 15.014176,69.209312 18.611839,69.176010 
	C34.601288,69.028008 50.593399,69.043602 66.583267,69.166786 
	C69.914307,69.192436 70.881126,67.926682 70.859314,64.751160 
	C70.750603,48.927662 70.752678,33.102634 70.858055,17.279089 
	C70.878983,14.136344 69.975693,12.806640 66.613525,12.832854 
	C50.623680,12.957528 34.631592,12.969533 18.642075,12.825168 
	C15.082597,12.793029 14.084586,14.087873 14.127111,17.503580 
	C14.284699,30.161013 14.189644,42.821590 14.189371,56.471535 
z"/>
<path fill="#FBFCF9" opacity="1.000000" stroke="none" 
	d="
M14.189438,55.976261 
	C14.189644,42.821590 14.284699,30.161013 14.127111,17.503580 
	C14.084586,14.087873 15.082597,12.793029 18.642075,12.825168 
	C34.631592,12.969533 50.623680,12.957528 66.613525,12.832854 
	C69.975693,12.806640 70.878983,14.136344 70.858055,17.279089 
	C70.752678,33.102634 70.750603,48.927662 70.859314,64.751160 
	C70.881126,67.926682 69.914307,69.192436 66.583267,69.166786 
	C50.593399,69.043602 34.601288,69.028008 18.611839,69.176010 
	C15.014176,69.209312 13.877280,67.851952 14.147528,64.463562 
	C14.358746,61.815289 14.189540,59.136669 14.189438,55.976261 
M24.233795,35.771748 
	C27.060995,38.306740 27.627840,41.485512 27.421803,45.162365 
	C27.161634,49.805244 27.283415,54.481697 27.476595,59.133862 
	C27.624075,62.685482 29.347317,65.454926 33.215210,65.302353 
	C36.937729,65.155525 38.758511,62.480919 38.840763,58.881184 
	C38.962391,53.557907 38.852177,48.229698 38.899696,42.904114 
	C38.911362,41.596600 38.644245,39.768024 39.366783,39.067245 
	C45.291576,33.320885 41.722183,26.112913 42.502579,19.614651 
	C42.603191,18.776831 41.187851,17.756958 40.474751,16.821415 
	C39.923424,17.873230 39.003613,18.888790 38.895832,19.984243 
	C38.655510,22.426802 38.820778,24.909264 38.820778,27.375465 
	C38.444420,27.653559 38.068066,27.931654 37.691708,28.209749 
	C36.807537,27.350143 35.405396,26.618269 35.154881,25.602402 
	C34.728973,23.875294 35.277355,21.920986 34.934540,20.155714 
	C34.707493,18.986555 33.639717,17.980667 32.948315,16.901686 
	C32.340202,17.908247 31.498001,18.848776 31.190165,19.940041 
	C30.885609,21.019680 31.348209,22.310955 31.063272,23.402061 
	C30.673370,24.895113 29.895164,26.286758 29.283390,27.721869 
	C28.738205,26.203440 28.106573,24.708532 27.684332,23.156651 
	C27.473423,22.381487 27.878456,21.409857 27.593473,20.689959 
	C27.059771,19.341774 26.226578,18.112150 25.517967,16.833208 
	C24.951340,18.033234 23.931353,19.220779 23.897917,20.435484 
	C23.765285,25.253534 23.941082,30.080074 24.233795,35.771748 
M61.162750,22.621750 
	C61.091400,16.367155 58.863537,14.988995 53.387150,18.020443 
	C51.828831,18.883047 50.392246,20.157492 49.240421,21.529089 
	C44.408466,27.282984 46.665100,34.252773 46.144424,40.748108 
	C45.922127,43.521263 46.020332,46.057480 49.388084,47.120907 
	C49.829346,47.260242 49.936409,48.879612 49.965565,49.820690 
	C50.042835,52.314724 50.064342,54.815228 49.976791,57.308548 
	C49.833755,61.382038 50.760445,64.780876 55.513489,65.240715 
	C59.099670,65.587669 61.133621,62.704651 61.150631,57.542854 
	C61.187923,46.225903 61.162609,34.908749 61.162750,22.621750 
z"/>
<path fill="#809E4F" opacity="1.000000" stroke="none" 
	d="
M24.118187,35.337608 
	C23.941082,30.080074 23.765285,25.253534 23.897917,20.435484 
	C23.931353,19.220779 24.951340,18.033234 25.517967,16.833208 
	C26.226578,18.112150 27.059771,19.341774 27.593473,20.689959 
	C27.878456,21.409857 27.473423,22.381487 27.684332,23.156651 
	C28.106573,24.708532 28.738205,26.203440 29.283392,27.721869 
	C29.895164,26.286758 30.673370,24.895113 31.063272,23.402061 
	C31.348209,22.310955 30.885609,21.019680 31.190165,19.940041 
	C31.498001,18.848776 32.340202,17.908247 32.948315,16.901686 
	C33.639717,17.980667 34.707493,18.986555 34.934540,20.155714 
	C35.277355,21.920986 34.728973,23.875294 35.154881,25.602402 
	C35.405396,26.618269 36.807537,27.350143 37.691708,28.209749 
	C38.068066,27.931654 38.444420,27.653559 38.820778,27.375465 
	C38.820778,24.909264 38.655510,22.426802 38.895832,19.984243 
	C39.003613,18.888790 39.923424,17.873230 40.474747,16.821415 
	C41.187851,17.756958 42.603191,18.776831 42.502579,19.614651 
	C41.722183,26.112913 45.291576,33.320885 39.366783,39.067245 
	C38.644245,39.768024 38.911362,41.596600 38.899696,42.904114 
	C38.852177,48.229698 38.962391,53.557907 38.840763,58.881184 
	C38.758511,62.480919 36.937729,65.155525 33.215210,65.302353 
	C29.347317,65.454926 27.624075,62.685482 27.476595,59.133862 
	C27.283415,54.481697 27.161634,49.805244 27.421803,45.162365 
	C27.627840,41.485512 27.060995,38.306740 24.118187,35.337608 
M35.009182,46.540070 
	C35.143417,41.411747 33.696785,35.910015 40.311752,31.783340 
	C34.814743,31.783340 31.170355,31.783340 27.525967,31.783340 
	C32.157677,35.519485 31.142879,40.414120 31.139250,45.030209 
	C31.135719,49.519718 31.027418,54.015411 31.254410,58.493725 
	C31.301720,59.427086 32.616550,60.296192 33.347252,61.194908 
	C33.896763,60.295952 34.872963,59.418961 34.920570,58.494167 
	C35.108395,54.845463 35.004719,51.181759 35.009182,46.540070 
z"/>
<path fill="#7A9A48" opacity="1.000000" stroke="none" 
	d="
M61.162804,23.106712 
	C61.162609,34.908749 61.187923,46.225903 61.150631,57.542854 
	C61.133621,62.704651 59.099670,65.587669 55.513489,65.240715 
	C50.760445,64.780876 49.833755,61.382038 49.976791,57.308548 
	C50.064342,54.815228 50.042835,52.314724 49.965565,49.820690 
	C49.936409,48.879612 49.829346,47.260242 49.388084,47.120907 
	C46.020332,46.057480 45.922127,43.521263 46.144424,40.748108 
	C46.665100,34.252773 44.408466,27.282984 49.240421,21.529089 
	C50.392246,20.157492 51.828831,18.883047 53.387150,18.020443 
	C58.863537,14.988995 61.091400,16.367155 61.162804,23.106712 
M51.203453,25.044304 
	C50.813259,30.460581 50.408283,35.875908 50.060719,41.294922 
	C50.032688,41.731983 50.338955,42.549629 50.591042,42.592266 
	C55.260216,43.381927 53.573044,47.047302 53.774693,49.735790 
	C53.973129,52.381523 53.638779,55.071678 53.901237,57.706173 
	C54.022991,58.928291 55.005726,60.064640 55.598148,61.239868 
	C56.279190,60.093678 57.525539,58.959618 57.550446,57.799343 
	C57.725285,49.655128 57.648788,41.505512 57.651482,33.357620 
	C57.652824,29.286348 57.651714,25.215075 57.651714,19.644690 
	C54.848633,21.852154 53.243675,23.116077 51.203453,25.044304 
z"/>
<path fill="#F1F4EB" opacity="1.000000" stroke="none" 
	d="
M35.009186,47.031845 
	C35.004719,51.181759 35.108395,54.845463 34.920570,58.494167 
	C34.872963,59.418961 33.896763,60.295952 33.347252,61.194908 
	C32.616550,60.296192 31.301720,59.427086 31.254410,58.493725 
	C31.027418,54.015411 31.135719,49.519718 31.139250,45.030209 
	C31.142879,40.414120 32.157677,35.519485 27.525967,31.783340 
	C31.170355,31.783340 34.814743,31.783340 40.311752,31.783340 
	C33.696785,35.910015 35.143417,41.411747 35.009186,47.031845 
z"/>
<path fill="#F1F5EC" opacity="1.000000" stroke="none" 
	d="
M51.421089,24.712152 
	C53.243675,23.116077 54.848633,21.852154 57.651714,19.644690 
	C57.651714,25.215075 57.652824,29.286348 57.651482,33.357620 
	C57.648788,41.505512 57.725285,49.655128 57.550446,57.799343 
	C57.525539,58.959618 56.279190,60.093678 55.598148,61.239868 
	C55.005726,60.064640 54.022991,58.928291 53.901237,57.706173 
	C53.638779,55.071678 53.973129,52.381523 53.774693,49.735790 
	C53.573044,47.047302 55.260216,43.381927 50.591042,42.592266 
	C50.338955,42.549629 50.032688,41.731983 50.060719,41.294922 
	C50.408283,35.875908 50.813259,30.460581 51.421089,24.712152 
z"/>
</svg>