<svg version="1.1" id="Layer_1" xmlns="http://www.w3.org/2000/svg" xmlns:xlink="http://www.w3.org/1999/xlink" x="0px" y="0px"
	 width="100%" viewBox="0 0 113 87" enable-background="new 0 0 113 87" xml:space="preserve">
<path fill="#FEFEFE" opacity="1.000000" stroke="none" 
	d="
M78.000000,88.000000 
	C52.000000,88.000000 26.500000,88.000000 1.000000,88.000000 
	C1.000000,59.000000 1.000000,30.000000 1.000000,1.000000 
	C38.666668,1.000000 76.333336,1.000000 114.000000,1.000000 
	C114.000000,30.000000 114.000000,59.000000 114.000000,88.000000 
	C102.166664,88.000000 90.333336,88.000000 78.000000,88.000000 
M33.977074,78.563187 
	C37.238613,74.876755 40.500153,71.190323 44.614212,66.540306 
	C45.771175,71.213989 46.310749,73.983299 47.192856,76.638824 
	C47.503746,77.574730 48.793598,78.967262 49.387871,78.853432 
	C50.411373,78.657387 51.541069,77.608116 52.079021,76.619255 
	C52.858952,75.185593 53.177948,73.494759 53.648438,71.900307 
	C55.542000,65.483170 57.418217,59.060913 59.300514,52.641666 
	C74.201462,57.376667 85.216736,54.341938 91.778038,44.101978 
	C97.615746,34.991314 96.336807,21.920753 88.788544,13.549978 
	C81.786110,5.784499 69.352638,3.376083 59.972107,9.024546 
	C55.646175,11.629394 51.627522,15.730610 49.090309,20.095470 
	C44.990597,27.148336 45.769711,35.016735 49.114437,42.533985 
	C41.013180,44.886688 33.340809,47.048706 25.727472,49.401718 
	C24.663891,49.730434 23.015833,51.231369 23.163054,51.782078 
	C23.477758,52.959305 24.602160,54.319557 25.734894,54.795319 
	C28.080196,55.780365 30.647491,56.236877 34.208012,57.205894 
	C29.991011,61.306038 26.499741,64.589256 23.136690,67.998940 
	C19.040878,72.151550 19.051640,74.305412 22.941116,78.611473 
	C26.677803,82.748375 28.836580,82.841881 33.977074,78.563187 
z"/>
<path fill="#7A9A48" opacity="1.000000" stroke="none" 
	d="
M33.717503,78.815094 
	C28.836580,82.841881 26.677803,82.748375 22.941116,78.611473 
	C19.051640,74.305412 19.040878,72.151550 23.136690,67.998940 
	C26.499741,64.589256 29.991011,61.306038 34.208012,57.205894 
	C30.647491,56.236877 28.080196,55.780365 25.734894,54.795319 
	C24.602160,54.319557 23.477758,52.959305 23.163054,51.782078 
	C23.015833,51.231369 24.663891,49.730434 25.727472,49.401718 
	C33.340809,47.048706 41.013180,44.886688 49.114437,42.533985 
	C45.769711,35.016735 44.990597,27.148336 49.090309,20.095470 
	C51.627522,15.730610 55.646175,11.629394 59.972107,9.024546 
	C69.352638,3.376083 81.786110,5.784499 88.788544,13.549978 
	C96.336807,21.920753 97.615746,34.991314 91.778038,44.101978 
	C85.216736,54.341938 74.201462,57.376667 59.300514,52.641666 
	C57.418217,59.060913 55.542000,65.483170 53.648438,71.900307 
	C53.177948,73.494759 52.858952,75.185593 52.079021,76.619255 
	C51.541069,77.608116 50.411373,78.657387 49.387871,78.853432 
	C48.793598,78.967262 47.503746,77.574730 47.192856,76.638824 
	C46.310749,73.983299 45.771175,71.213989 44.614212,66.540306 
	C40.500153,71.190323 37.238613,74.876755 33.717503,78.815094 
M76.230873,49.968403 
	C84.308319,47.084396 89.284447,41.592171 90.037598,32.890373 
	C90.789825,24.199247 87.012863,17.781784 79.388191,13.707698 
	C71.531441,9.509604 61.265961,11.775477 55.531380,18.803267 
	C49.864765,25.747761 49.618492,34.379528 54.896755,41.046471 
	C61.458805,39.822906 61.458805,39.822906 61.233486,47.776970 
	C65.941238,50.582275 69.769653,51.224667 76.230873,49.968403 
M42.230576,49.772121 
	C40.186897,50.341969 38.143219,50.911816 34.940823,51.804756 
	C42.460598,54.763268 42.571556,55.312840 38.027531,59.869293 
	C33.593307,64.315659 29.180977,68.783859 24.629951,73.372635 
	C25.797321,74.727211 26.737844,75.818558 28.214205,77.531670 
	C33.179607,72.328613 37.583942,67.596092 42.121582,62.995041 
	C45.889542,59.174442 47.136791,59.525528 48.764282,64.600586 
	C49.014256,65.380081 49.170059,66.189774 49.504177,67.523422 
	C51.513531,60.229057 53.377014,53.464233 55.285095,46.537506 
	C54.169449,46.537506 53.831635,46.466686 53.535881,46.548302 
	C50.013531,47.520344 46.497437,48.515079 42.230576,49.772121 
z"/>
<path fill="#FAFBF8" opacity="1.000000" stroke="none" 
	d="
M75.844711,50.066139 
	C69.769653,51.224667 65.941238,50.582275 61.233486,47.776970 
	C61.458805,39.822906 61.458805,39.822906 54.896755,41.046471 
	C49.618492,34.379528 49.864765,25.747761 55.531380,18.803267 
	C61.265961,11.775477 71.531441,9.509604 79.388191,13.707698 
	C87.012863,17.781784 90.789825,24.199247 90.037598,32.890373 
	C89.284447,41.592171 84.308319,47.084396 75.844711,50.066139 
M77.178810,20.675322 
	C75.716331,18.785408 74.458649,16.660585 72.691574,15.120050 
	C71.974831,14.495188 69.919914,14.742747 68.893761,15.328662 
	C67.939384,15.873600 67.722336,17.566952 66.871262,18.459757 
	C62.521366,23.022957 62.628277,26.868540 67.397995,31.177299 
	C68.755707,32.403797 70.400719,33.390564 71.484550,34.814201 
	C72.198174,35.751560 72.143433,37.273891 72.432762,38.534279 
	C71.154457,38.113979 69.830635,37.794857 68.610283,37.245766 
	C67.314293,36.662643 66.116455,35.861366 64.875755,35.155354 
	C64.648361,36.671165 63.791790,38.475460 64.326569,39.641815 
	C65.389389,41.959846 67.186417,43.950638 68.748016,46.025509 
	C69.297256,46.755276 70.239517,47.978786 70.662704,47.851112 
	C71.571007,47.577084 72.336044,46.637180 73.013275,45.844742 
	C73.625931,45.127850 73.911377,44.111710 74.568871,43.455849 
	C79.728096,38.309395 79.536247,34.611618 73.823265,29.942245 
	C72.282196,28.682695 70.551491,27.532307 69.408440,25.966385 
	C68.919846,25.297045 69.713173,23.691957 69.924004,22.512068 
	C70.876114,22.883108 71.917747,23.114830 72.760384,23.656254 
	C74.198845,24.580523 75.512474,25.699076 76.878540,26.736023 
	C77.112885,24.948633 77.347229,23.161245 77.178810,20.675322 
z"/>
<path fill="#F4F7F0" opacity="1.000000" stroke="none" 
	d="
M42.605141,49.637993 
	C46.497437,48.515079 50.013531,47.520344 53.535881,46.548302 
	C53.831635,46.466686 54.169449,46.537506 55.285095,46.537506 
	C53.377014,53.464233 51.513531,60.229057 49.504177,67.523422 
	C49.170059,66.189774 49.014256,65.380081 48.764282,64.600586 
	C47.136791,59.525528 45.889542,59.174442 42.121582,62.995041 
	C37.583942,67.596092 33.179607,72.328613 28.214205,77.531670 
	C26.737844,75.818558 25.797321,74.727211 24.629951,73.372635 
	C29.180977,68.783859 33.593307,64.315659 38.027531,59.869293 
	C42.571556,55.312840 42.460598,54.763268 34.940823,51.804756 
	C38.143219,50.911816 40.186897,50.341969 42.605141,49.637993 
z"/>
<path fill="#7C9B4A" opacity="1.000000" stroke="none" 
	d="
M77.380196,21.024590 
	C77.347229,23.161245 77.112885,24.948633 76.878540,26.736023 
	C75.512474,25.699076 74.198845,24.580523 72.760384,23.656254 
	C71.917747,23.114830 70.876114,22.883108 69.924004,22.512068 
	C69.713173,23.691957 68.919846,25.297045 69.408440,25.966385 
	C70.551491,27.532307 72.282196,28.682695 73.823265,29.942245 
	C79.536247,34.611618 79.728096,38.309395 74.568871,43.455849 
	C73.911377,44.111710 73.625931,45.127850 73.013275,45.844742 
	C72.336044,46.637180 71.571007,47.577084 70.662704,47.851112 
	C70.239517,47.978786 69.297256,46.755276 68.748016,46.025509 
	C67.186417,43.950638 65.389389,41.959846 64.326569,39.641815 
	C63.791790,38.475460 64.648361,36.671165 64.875755,35.155354 
	C66.116455,35.861366 67.314293,36.662643 68.610283,37.245766 
	C69.830635,37.794857 71.154457,38.113979 72.432762,38.534279 
	C72.143433,37.273891 72.198174,35.751560 71.484550,34.814201 
	C70.400719,33.390564 68.755707,32.403797 67.397995,31.177299 
	C62.628277,26.868540 62.521366,23.022957 66.871262,18.459757 
	C67.722336,17.566952 67.939384,15.873600 68.893761,15.328662 
	C69.919914,14.742747 71.974831,14.495188 72.691574,15.120050 
	C74.458649,16.660585 75.716331,18.785408 77.380196,21.024590 
z"/>
</svg>