<svg version="1.1" id="Layer_1" xmlns="http://www.w3.org/2000/svg" xmlns:xlink="http://www.w3.org/1999/xlink" x="0px" y="0px"
	 width="100%" viewBox="0 0 88 79" enable-background="new 0 0 88 79" xml:space="preserve">
<path fill="#FEFFFE" opacity="1.000000" stroke="none" 
	d="
M59.000000,80.000000 
	C39.333336,80.000000 20.166674,80.000000 1.000008,80.000000 
	C1.000005,53.666676 1.000005,27.333349 1.000003,1.000018 
	C30.333321,1.000012 59.666641,1.000012 88.999969,1.000006 
	C88.999985,27.333315 88.999985,53.666630 88.999992,79.999969 
	C79.166664,80.000000 69.333336,80.000000 59.000000,80.000000 
M21.442739,41.191402 
	C22.007994,48.158482 22.569132,55.125893 23.139717,62.092537 
	C23.654678,68.380005 25.317873,69.992592 31.507381,70.021599 
	C39.832813,70.060623 48.158588,70.043610 56.484173,70.027748 
	C63.623894,70.014137 64.976547,68.915306 65.598206,61.860188 
	C66.533157,51.249706 67.221741,40.617588 68.142456,30.005718 
	C68.288803,28.318953 68.727104,25.540855 69.671341,25.232977 
	C73.793861,23.888792 73.265091,20.619574 72.133667,18.400734 
	C71.049316,16.274195 68.454956,14.212843 66.132935,13.596138 
	C63.057781,12.779408 59.602234,13.394943 56.317928,13.394943 
	C55.448521,8.312482 53.100712,5.458040 48.145535,5.997049 
	C42.105618,6.654054 33.910728,2.655444 32.518642,13.549240 
	C28.737188,13.549240 25.104359,12.941829 21.832005,13.765879 
	C19.701906,14.302283 17.467522,16.621597 16.470972,18.710434 
	C15.775904,20.167347 16.860851,22.680237 17.591002,24.549440 
	C18.258188,26.257460 20.081844,27.629635 20.397991,29.334822 
	C21.061689,32.914562 21.070116,36.615795 21.442739,41.191402 
z"/>
<path fill="#7E9C4C" opacity="1.000000" stroke="none" 
	d="
M21.395147,40.729279 
	C21.070116,36.615795 21.061689,32.914562 20.397991,29.334822 
	C20.081844,27.629635 18.258188,26.257460 17.591002,24.549440 
	C16.860851,22.680237 15.775904,20.167347 16.470972,18.710434 
	C17.467522,16.621597 19.701906,14.302283 21.832005,13.765879 
	C25.104359,12.941829 28.737188,13.549240 32.518642,13.549240 
	C33.910728,2.655444 42.105618,6.654054 48.145535,5.997049 
	C53.100712,5.458040 55.448521,8.312482 56.317928,13.394943 
	C59.602234,13.394943 63.057781,12.779408 66.132935,13.596138 
	C68.454956,14.212843 71.049316,16.274195 72.133667,18.400734 
	C73.265091,20.619574 73.793861,23.888792 69.671341,25.232977 
	C68.727104,25.540855 68.288803,28.318953 68.142456,30.005718 
	C67.221741,40.617588 66.533157,51.249706 65.598206,61.860188 
	C64.976547,68.915306 63.623894,70.014137 56.484173,70.027748 
	C48.158588,70.043610 39.832813,70.060623 31.507381,70.021599 
	C25.317873,69.992592 23.654678,68.380005 23.139717,62.092537 
	C22.569132,55.125893 22.007994,48.158482 21.395147,40.729279 
M26.927317,59.493374 
	C27.252464,66.125648 27.252464,66.127716 34.087032,66.129692 
	C41.751129,66.131905 49.416290,66.057114 57.078758,66.168762 
	C59.795158,66.208351 61.539024,65.650360 61.762520,62.508190 
	C62.643864,50.117306 63.634388,37.734184 64.601875,25.120396 
	C50.979130,25.120396 37.728344,25.120396 24.028128,25.120396 
	C24.993393,36.461205 25.934666,47.520100 26.927317,59.493374 
M40.500233,20.998943 
	C49.872238,20.998943 59.244244,20.998943 68.616249,20.998943 
	C68.795311,20.418545 68.974380,19.838148 69.153442,19.257750 
	C67.844559,18.557629 66.541893,17.262686 65.225838,17.248920 
	C51.270439,17.102978 37.312252,17.102768 23.357094,17.261225 
	C22.101604,17.275480 20.861872,18.677549 19.614822,19.435106 
	C19.818266,19.956385 20.021708,20.477665 20.225151,20.998943 
	C26.650269,20.998943 33.075386,20.998943 40.500233,20.998943 
M37.416039,10.656638 
	C37.820343,11.638897 38.183704,13.452204 38.635307,13.474453 
	C42.998596,13.689428 47.376717,13.603414 51.750599,13.603414 
	C51.938828,12.994370 52.127060,12.385328 52.315292,11.776285 
	C51.051193,11.124760 49.812576,9.983715 48.518078,9.916340 
	C45.063370,9.736534 41.584644,10.018211 37.416039,10.656638 
z"/>
<path fill="#FAFBF8" opacity="1.000000" stroke="none" 
	d="
M26.901627,59.036186 
	C25.934666,47.520100 24.993393,36.461205 24.028128,25.120396 
	C37.728344,25.120396 50.979130,25.120396 64.601875,25.120396 
	C63.634388,37.734184 62.643864,50.117306 61.762520,62.508190 
	C61.539024,65.650360 59.795158,66.208351 57.078758,66.168762 
	C49.416290,66.057114 41.751129,66.131905 34.087032,66.129692 
	C27.252464,66.127716 27.252464,66.125648 26.901627,59.036186 
M53.818703,45.482704 
	C54.210739,49.849018 52.892872,54.449593 55.187164,59.591187 
	C56.429943,57.979511 57.470261,57.257576 57.482471,56.518654 
	C57.622337,48.052734 57.661358,39.583408 57.536964,31.117790 
	C57.525692,30.350943 56.194145,29.603497 55.475719,28.847040 
	C54.928902,29.742758 53.946228,30.621040 53.909584,31.537167 
	C53.737095,35.849075 53.824139,40.171368 53.818703,45.482704 
M31.163160,41.524006 
	C31.136957,46.183002 30.986034,50.847420 31.188282,55.496479 
	C31.229437,56.442459 32.600208,57.330593 33.358040,58.245392 
	C33.913307,57.355419 34.936378,56.472881 34.950665,55.574306 
	C35.077637,47.587429 35.077984,39.596931 34.956600,31.609915 
	C34.942657,30.692430 33.955757,29.789734 33.419975,28.880178 
	C32.643913,29.771475 31.286869,30.609734 31.199760,31.563925 
	C30.928829,34.531742 31.139454,37.543514 31.163160,41.524006 
M46.164589,43.500542 
	C46.164471,30.679560 46.164471,30.679560 43.953365,28.978258 
	C41.652946,33.664291 42.163681,55.744316 46.044277,58.374401 
	C46.084415,53.748184 46.124554,49.121971 46.164589,43.500542 
z"/>
<path fill="#F6F8F2" opacity="1.000000" stroke="none" 
	d="
M40.000366,20.998943 
	C33.075386,20.998943 26.650269,20.998943 20.225151,20.998943 
	C20.021708,20.477665 19.818266,19.956385 19.614822,19.435106 
	C20.861872,18.677549 22.101604,17.275480 23.357094,17.261225 
	C37.312252,17.102768 51.270439,17.102978 65.225838,17.248920 
	C66.541893,17.262686 67.844559,18.557629 69.153442,19.257750 
	C68.974380,19.838148 68.795311,20.418545 68.616249,20.998943 
	C59.244244,20.998943 49.872238,20.998943 40.000366,20.998943 
z"/>
<path fill="#ECF1E5" opacity="1.000000" stroke="none" 
	d="
M37.765751,10.386551 
	C41.584644,10.018211 45.063370,9.736534 48.518078,9.916340 
	C49.812576,9.983715 51.051193,11.124760 52.315292,11.776285 
	C52.127060,12.385328 51.938828,12.994370 51.750599,13.603414 
	C47.376717,13.603414 42.998596,13.689428 38.635307,13.474453 
	C38.183704,13.452204 37.820343,11.638897 37.765751,10.386551 
z"/>
<path fill="#85A256" opacity="1.000000" stroke="none" 
	d="
M53.818638,44.986328 
	C53.824139,40.171368 53.737095,35.849075 53.909584,31.537167 
	C53.946228,30.621040 54.928902,29.742758 55.475719,28.847040 
	C56.194145,29.603497 57.525692,30.350943 57.536964,31.117790 
	C57.661358,39.583408 57.622337,48.052734 57.482471,56.518654 
	C57.470261,57.257576 56.429943,57.979511 55.187164,59.591187 
	C52.892872,54.449593 54.210739,49.849018 53.818638,44.986328 
z"/>
<path fill="#7E9D4D" opacity="1.000000" stroke="none" 
	d="
M31.163223,41.031120 
	C31.139454,37.543514 30.928829,34.531742 31.199760,31.563925 
	C31.286869,30.609734 32.643913,29.771475 33.419975,28.880180 
	C33.955757,29.789734 34.942657,30.692430 34.956600,31.609915 
	C35.077984,39.596931 35.077637,47.587429 34.950665,55.574306 
	C34.936378,56.472881 33.913307,57.355419 33.358040,58.245392 
	C32.600208,57.330593 31.229437,56.442459 31.188282,55.496479 
	C30.986034,50.847420 31.136957,46.183002 31.163223,41.031120 
z"/>
<path fill="#769641" opacity="1.000000" stroke="none" 
	d="
M46.164642,43.998146 
	C46.124554,49.121971 46.084415,53.748184 46.044277,58.374401 
	C42.163681,55.744316 41.652946,33.664291 43.953365,28.978258 
	C46.164471,30.679560 46.164471,30.679560 46.164642,43.998146 
z"/>
</svg>